<?xml version="1.0" encoding="UTF-8"?>
<svg id="Layer_2" data-name="Layer 2" xmlns="http://www.w3.org/2000/svg" viewBox="0 0 117.27 108.62">
  <defs>
    <style>
      .cls-1 {
        fill: #f9f2f4;
      }

      .cls-1, .cls-2 {
        stroke-width: 0px;
      }

      .cls-2 {
        fill: #1b1464;
      }
    </style>
  </defs>
  <g id="kosť">
    <g>
      <path class="cls-1" d="M34.72,58.51c6.01-6.16,11.8-12.14,17.8-18.3,2.08-2.14,4.21-4.34,5.37-7.09,1.37-3.25,1.24-6.89,1.34-10.42.15-5.6,1.03-11.46,4.42-15.92,3.39-4.46,9.92-6.92,14.81-4.2,3.92,2.18,5.74,7.03,5.57,11.51s-1.96,8.73-3.73,12.85c5.91-3.33,12.09-6.74,18.86-7.16s14.3,3.12,16.17,9.64c1.68,5.85-1.85,12.32-7.11,15.38s-11.78,3.22-17.74,1.99c-2.08-.43-4.22-1.03-6.3-.59-1.84.38-3.41,1.52-4.93,2.64-12.51,9.2-25.8,19.49-30.06,34.42-1.6,5.59-1.84,11.65-4.57,16.78-2.73,5.14-9.37,8.99-14.38,6.03-2.13-1.26-3.51-3.49-4.44-5.78-1.98-4.88-2.25-10.43-.76-15.48-5.02.1-10.2.17-14.87-1.7-4.67-1.86-8.73-6.18-8.68-11.21.06-6.78,7.2-11.38,13.88-12.51s12.85,1.06,19.34-.9"/>
      <path class="cls-2" d="M35.78,59.57c5.42-5.56,10.83-11.14,16.25-16.7,2.37-2.43,4.97-4.83,6.61-7.84s1.97-6.63,2.05-10.11c.14-6.18.42-13.36,4.94-18.14,3.66-3.87,10.28-5.59,14.22-1.17,5.22,5.86,1.8,14.44-.83,20.59-.56,1.31.63,2.85,2.05,2.05,5.81-3.27,12.09-6.89,18.95-6.98,5.04-.07,10.68,2.13,13.15,6.77,2.65,4.97.12,10.95-3.95,14.28-4.9,4.02-11.98,4.29-17.93,3.12-3.43-.67-6.59-1.45-9.88.21-2.73,1.38-5.19,3.56-7.62,5.41-4.8,3.65-9.51,7.45-13.72,11.79s-7.71,8.94-10.17,14.27c-1.29,2.8-2.23,5.71-2.89,8.72-.71,3.27-1.19,6.61-2.19,9.81s-2.58,6.08-5.34,8.03c-2.23,1.58-5.23,2.61-7.88,1.43-3.2-1.43-4.67-5.38-5.42-8.54-.89-3.75-.75-7.64.31-11.34.26-.92-.48-1.92-1.45-1.9-4.83.09-9.92.24-14.47-1.64-3.47-1.44-6.71-4.42-7.45-8.23-1.61-8.31,8.92-12.61,15.48-12.86,5.55-.22,11.06.93,16.51-.64,1.85-.53,1.06-3.43-.8-2.89-5.46,1.57-11.07.19-16.63.58-4.51.32-8.96,1.81-12.53,4.63-3.24,2.57-5.55,6.46-5.11,10.71.46,4.51,3.57,8.29,7.42,10.49,5.29,3.03,11.67,2.96,17.58,2.85l-1.45-1.9c-1.87,6.57-1.29,14.82,3.03,20.37,1.89,2.43,4.71,3.95,7.83,3.8,2.91-.14,5.6-1.47,7.8-3.32,5.44-4.55,6.2-11.94,7.59-18.43s4.3-12.38,8.48-17.55,9.03-9.43,14.14-13.47c2.64-2.08,5.33-4.11,8.05-6.08,1.5-1.08,3.08-2.13,4.99-2.2s3.74.56,5.58.88c6.58,1.17,14.01.74,19.52-3.45,4.76-3.62,7.87-9.98,6.16-15.97-1.6-5.6-6.94-9.23-12.44-10.35-6.95-1.41-13.81,1.14-19.91,4.3-1.65.85-3.27,1.76-4.89,2.67l2.05,2.05c2.81-6.57,5.64-13.83,2.55-20.83-2.62-5.93-9.08-8.36-15.04-5.98-6.46,2.57-9.75,8.85-10.81,15.44-.57,3.59-.48,7.18-.7,10.79-.11,1.91-.39,3.86-1.18,5.62s-1.94,3.17-3.19,4.54c-6.31,6.9-13.05,13.46-19.58,20.16-1.35,1.38.77,3.51,2.12,2.12h0Z"/>
    </g>
  </g>
</svg>