<?xml version="1.0" encoding="UTF-8"?>
<svg id="Layer_2" data-name="Layer 2" xmlns="http://www.w3.org/2000/svg" viewBox="0 0 234.75 234.07">
  <defs>
    <style>
      .cls-1, .cls-2, .cls-3 {
        stroke: #1b1464;
      }

      .cls-1, .cls-2, .cls-3, .cls-4 {
        stroke-miterlimit: 10;
        stroke-width: 3px;
      }

      .cls-1, .cls-4 {
        fill: #f9f2f4;
      }

      .cls-2 {
        fill: #1b1464;
      }

      .cls-3 {
        fill: #ff7bac;
      }

      .cls-4 {
        stroke: #060042;
      }
    </style>
  </defs>
  <g id="havo">
    <g>
      <path class="cls-4" d="M171.78,13.16c-3.75-11.28,66.34-27.92,61.2,25.22-.44,4.55-6.82,6.07-7.9,1.93-1.79-6.9-10.12-15.49-12.41-17.34-10.09-8.18-27.5-1.1-27.5-1.1l-13.39-8.71Z"/>
      <ellipse class="cls-3" cx="32.03" cy="224.95" rx="7.63" ry="4.54" transform="translate(-194.38 244.11) rotate(-86.74)"/>
      <path class="cls-1" d="M49.01,117.01c5.32-1.84,7.56,1.05,9.51,6.66,1.94,5.61,2.86,11.81-2.46,13.65-5.32,1.84-11.21-1.21-13.16-6.82-1.94-5.61.79-11.65,6.12-13.5Z"/>
      <path class="cls-1" d="M104.36,45.42c-5.29-1.95-5.18-5.61-3.12-11.18,2.05-5.57,5.28-10.94,10.57-8.99,5.29,1.95,7.9,8.05,5.85,13.62s-8,8.51-13.29,6.56Z"/>
      <path class="cls-1" d="M194.12,80.36c2.03,5.25-.79,7.59-6.32,9.73s-11.7,3.27-13.73-1.98.81-11.25,6.35-13.39,11.67.39,13.7,5.64Z"/>
      <path class="cls-1" d="M95.09,163.65c-.32-5.62,3.07-6.99,9-7.33,5.93-.34,12.14.47,12.47,6.09.32,5.62-4.22,10.46-10.14,10.8-5.93.34-11-3.94-11.32-9.56Z"/>
      <path class="cls-1" d="M36.07,148s6.9-5.12,15.17-21.84c2.61-5.27,4.05-11.09,4.67-17.09.99-9.63,4.69-19.24,11.27-27.65,6.1-7.8,13.82-13.53,22.17-17.01,9.67-6.51,17.01-18.5,19.91-23.73-.95-9.33,1.21-18.37,6.86-25.62,13.66-17.53,42.47-17.91,64.37-.85s28.57,45.09,14.91,62.62c-5.1,6.55-12.32,10.7-20.5,12.45-3.84,3.56-16.21,14.77-20.08,24.94-.28.74-.57,1.48-.92,2.2l-.08.17c-2.32,7.67-5.1,16.61-10.8,23.93-7.53,9.66-17.62,16.23-28.31,19.29-1.07.31-2.12.65-3.1,1.12-19.58,9.2-24.57,20.8-25.58,23.83,0,0-7.74,22.02-20.91,28.67-5.04,2.55-10.85,3.97-17.15,3.17-8.1,6.16-18.72,6.94-26.1,1.2-7.37-5.74-9.21-16.24-5.21-25.6-3.33-8.5-.89-16.24,2.28-23.96,3.1-7.54,17.15-20.23,17.15-20.23"/>
      <path class="cls-1" d="M78.61,184.34c-2.35-4.02-7.91-4.97-11.25-1.73-.51.49-.9,1.02-1.11,1.58-.98,2.55-2.14,20.76-2.64,29.4-.25,4.31,3.25,7.93,7.56,7.75,2.33-.1,5.24-.83,8.84-2.69,7.48-3.87,9.61-8.43,10.13-11.42.29-1.65-.08-3.34-.92-4.78l-10.6-18.12Z"/>
      <path class="cls-1" d="M32.51,151.1c4.43.11,7.78,4.31,6.6,8.58-.18.65-.45,1.22-.83,1.66-1.79,2.04-17.77,11.76-24.81,16-3.07,1.85-7.11,1.12-9.17-1.8-1.42-2.02-2.59-5.12-2.77-9.87-.31-8.15,2.73-12.02,5.09-13.78,1.23-.92,2.75-1.37,4.29-1.34l21.61.55Z"/>
      <ellipse class="cls-2" cx="22.62" cy="216.4" rx="3.5" ry="6.5" transform="translate(-161.98 101.23) rotate(-52.07)"/>
      <ellipse class="cls-2" cx="43.5" cy="206.68" rx="5" ry="3" transform="translate(-146.27 113.96) rotate(-52.07)"/>
      <ellipse class="cls-2" cx="28.51" cy="195" rx="5" ry="3" transform="translate(-142.83 97.64) rotate(-52.07)"/>
    </g>
  </g>
</svg>