<?xml version="1.0" encoding="UTF-8"?>
<svg id="Layer_2" data-name="Layer 2" xmlns="http://www.w3.org/2000/svg" viewBox="0 0 1760.37 2502.03">
  <defs>
    <style>
      .cls-1 {
        fill: #b6f7ff;
        stroke-width: 0px;
      }

      .cls-2 {
        fill: none;
        stroke: red;
        stroke-miterlimit: 10;
      }
    </style>
  </defs>
  <g id="Layer_2-2" data-name="Layer 2">
    <g>
      <path class="cls-1" d="M1748.04,19.5c36.15,52.06-81.86,89.12-81.75,152.5.11,63.38,90.11,63.23,90.21,126.61.11,63.38-89.89,63.53-89.79,126.91.11,63.38,90.11,63.23,90.21,126.61.11,63.38-89.89,63.53-89.79,126.91s90.11,63.23,90.21,126.61c.11,63.38-89.89,63.53-89.79,126.91.11,63.38,90.11,63.23,90.21,126.61.11,63.38-89.89,63.53-89.79,126.91s90.11,63.23,90.21,126.61c.11,63.38-89.89,63.53-89.79,126.91.11,63.38,90.11,63.23,90.21,126.61.11,63.38-89.89,63.53-89.79,126.91.11,63.38,90.11,63.23,90.21,126.61.11,63.38-89.89,63.53-89.79,126.91.11,63.38,90.11,63.23,90.21,126.62.11,63.38-89.89,63.53-89.79,126.91.11,63.39,90.11,63.24,90.21,126.62s-45.88,49.12-81.85,101.31c-24.87,36.1-6.69,70.62-50.53,70.7-43.84.08-44.01-89.92-87.84-89.83-43.84.08-43.66,90.08-87.5,90.17-43.84.08-44.01-89.92-87.85-89.83-43.84.08-43.66,90.08-87.5,90.17-43.84.08-44.01-89.92-87.85-89.83-43.84.08-43.66,90.08-87.5,90.17s-44.01-89.92-87.85-89.83c-43.83.08-43.66,90.08-87.49,90.17s-44.01-89.92-87.85-89.83-43.66,90.08-87.5,90.17-44.01-89.92-87.84-89.83-43.66,90.08-87.5,90.17c-43.84.08-44.01-89.92-87.85-89.83-43.84.08-43.66,90.08-87.5,90.17-43.84.08-44.01-89.92-87.85-89.83-43.84.08-43.66,90.08-87.5,90.17-43.84.08-44.01-89.92-87.85-89.83s-99.56,106.84-124.56,70.83c-36.15-52.06,81.86-89.12,81.75-152.5-.11-63.38-90.11-63.23-90.21-126.61-.11-63.38,89.89-63.53,89.79-126.91S3.55,2013.29,3.45,1949.9c-.11-63.38,89.89-63.53,89.79-126.91-.11-63.38-90.11-63.23-90.21-126.61s89.89-63.53,89.79-126.91c-.11-63.38-90.11-63.23-90.21-126.61s89.89-63.53,89.79-126.91S2.29,1252.71,2.18,1189.33c-.11-63.38,89.89-63.53,89.79-126.91-.11-63.38-90.11-63.23-90.21-126.61-.11-63.38,89.89-63.53,89.79-126.91S1.45,745.66,1.34,682.28c-.11-63.38,89.89-63.53,89.79-126.91-.11-63.38-90.11-63.23-90.21-126.62-.11-63.38,89.89-63.53,89.79-126.91-.11-63.39-90.11-63.24-90.21-126.62s45.88-49.12,81.85-101.31C107.22,37.81,89.04,3.29,132.87,3.2c43.84-.08,44.01,89.92,87.84,89.83S264.38,2.95,308.22,2.86c43.84-.08,44.01,89.92,87.85,89.83S439.72,2.61,483.56,2.53s44.01,89.92,87.85,89.83c43.84-.08,43.66-90.08,87.5-90.17s44.01,89.92,87.85,89.83S790.41,1.94,834.25,1.85c43.84-.08,44.01,89.92,87.85,89.83,43.84-.08,43.66-90.08,87.5-90.17,43.84-.08,44.01,89.92,87.84,89.83,43.84-.08,43.66-90.08,87.5-90.17s44.01,89.92,87.85,89.83c43.84-.08,43.66-90.08,87.5-90.17s44.01,89.92,87.85,89.83S1491.79.58,1535.63.5s60.29,101.33,101.91,87.55c64.53-21.36,85.5-104.56,110.5-68.55Z"/>
      <path class="cls-2" d="M1748.04,19.5c36.15,52.06-81.86,89.12-81.75,152.5.11,63.38,90.11,63.23,90.21,126.61.11,63.38-89.89,63.53-89.79,126.91.11,63.38,90.11,63.23,90.21,126.61.11,63.38-89.89,63.53-89.79,126.91s90.11,63.23,90.21,126.61c.11,63.38-89.89,63.53-89.79,126.91.11,63.38,90.11,63.23,90.21,126.61.11,63.38-89.89,63.53-89.79,126.91s90.11,63.23,90.21,126.61c.11,63.38-89.89,63.53-89.79,126.91.11,63.38,90.11,63.23,90.21,126.61.11,63.38-89.89,63.53-89.79,126.91.11,63.38,90.11,63.23,90.21,126.61.11,63.38-89.89,63.53-89.79,126.91.11,63.38,90.11,63.23,90.21,126.62.11,63.38-89.89,63.53-89.79,126.91.11,63.39,90.11,63.24,90.21,126.62s-45.88,49.12-81.85,101.31c-24.87,36.1-6.69,70.62-50.53,70.7-43.84.08-44.01-89.92-87.84-89.83-43.84.08-43.66,90.08-87.5,90.17-43.84.08-44.01-89.92-87.85-89.83-43.84.08-43.66,90.08-87.5,90.17-43.84.08-44.01-89.92-87.85-89.83-43.84.08-43.66,90.08-87.5,90.17s-44.01-89.92-87.85-89.83c-43.83.08-43.66,90.08-87.49,90.17s-44.01-89.92-87.85-89.83-43.66,90.08-87.5,90.17-44.01-89.92-87.84-89.83-43.66,90.08-87.5,90.17c-43.84.08-44.01-89.92-87.85-89.83-43.84.08-43.66,90.08-87.5,90.17-43.84.08-44.01-89.92-87.85-89.83-43.84.08-43.66,90.08-87.5,90.17-43.84.08-44.01-89.92-87.85-89.83s-99.56,106.84-124.56,70.83c-36.15-52.06,81.86-89.12,81.75-152.5-.11-63.38-90.11-63.23-90.21-126.61-.11-63.38,89.89-63.53,89.79-126.91S3.55,2013.29,3.45,1949.9c-.11-63.38,89.89-63.53,89.79-126.91-.11-63.38-90.11-63.23-90.21-126.61s89.89-63.53,89.79-126.91c-.11-63.38-90.11-63.23-90.21-126.61s89.89-63.53,89.79-126.91S2.29,1252.71,2.18,1189.33c-.11-63.38,89.89-63.53,89.79-126.91-.11-63.38-90.11-63.23-90.21-126.61-.11-63.38,89.89-63.53,89.79-126.91S1.45,745.66,1.34,682.28c-.11-63.38,89.89-63.53,89.79-126.91-.11-63.38-90.11-63.23-90.21-126.62-.11-63.38,89.89-63.53,89.79-126.91-.11-63.39-90.11-63.24-90.21-126.62s45.88-49.12,81.85-101.31C107.22,37.81,89.04,3.29,132.87,3.2c43.84-.08,44.01,89.92,87.84,89.83S264.38,2.95,308.22,2.86c43.84-.08,44.01,89.92,87.85,89.83S439.72,2.61,483.56,2.53s44.01,89.92,87.85,89.83c43.84-.08,43.66-90.08,87.5-90.17s44.01,89.92,87.85,89.83S790.41,1.94,834.25,1.85c43.84-.08,44.01,89.92,87.85,89.83,43.84-.08,43.66-90.08,87.5-90.17,43.84-.08,44.01,89.92,87.84,89.83,43.84-.08,43.66-90.08,87.5-90.17s44.01,89.92,87.85,89.83c43.84-.08,43.66-90.08,87.5-90.17s44.01,89.92,87.85,89.83S1491.79.58,1535.63.5s60.29,101.33,101.91,87.55c64.53-21.36,85.5-104.56,110.5-68.55Z"/>
    </g>
  </g>
</svg>